<svg width="59" height="54" viewBox="0 0 59 54" fill="none" xmlns="http://www.w3.org/2000/svg">
<g clip-path="url(#clip0_1_2)">
<path d="M65.384 1.6C73.496 1.6 79.976 3.352 84.824 6.856C89.72 10.36 92.168 15.784 92.168 23.128V30.472C92.168 37.96 89.744 43.432 84.896 46.888C80.096 50.296 73.592 52 65.384 52H42.416C41.888 52 41.432 51.808 41.048 51.424C40.664 51.04 40.472 50.584 40.472 50.056V3.544C40.472 3.016 40.664 2.56 41.048 2.176C41.432 1.792 41.888 1.6 42.416 1.6H65.384ZM65.744 37.96C68 37.96 69.776 37.432 71.072 36.376C72.416 35.272 73.088 33.736 73.088 31.768V21.832C73.088 19.864 72.416 18.352 71.072 17.296C69.776 16.192 68 15.64 65.744 15.64H59.192V37.96H65.744ZM116.404 49.552C115.78 51.184 114.7 52 113.164 52H99.5559C99.1239 52 98.7399 51.856 98.4039 51.568C98.1159 51.232 97.9719 50.848 97.9719 50.416L98.0439 49.984L113.74 3.976C113.932 3.352 114.292 2.8 114.82 2.32C115.348 1.84 116.068 1.6 116.98 1.6H136.996C137.908 1.6 138.628 1.84 139.156 2.32C139.684 2.8 140.044 3.352 140.236 3.976L155.932 49.984L156.004 50.416C156.004 50.848 155.836 51.232 155.5 51.568C155.212 51.856 154.852 52 154.42 52H140.812C139.276 52 138.196 51.184 137.572 49.552L135.772 44.512H118.204L116.404 49.552ZM126.988 15.496L121.876 30.472H132.1L126.988 15.496ZM212.784 1.6C213.312 1.6 213.768 1.792 214.152 2.176C214.536 2.56 214.728 3.016 214.728 3.544V15.136C214.728 15.664 214.536 16.12 214.152 16.504C213.768 16.888 213.312 17.08 212.784 17.08H197.304V50.056C197.304 50.584 197.112 51.04 196.728 51.424C196.344 51.808 195.888 52 195.36 52H180.528C180 52 179.544 51.808 179.16 51.424C178.776 51.04 178.584 50.584 178.584 50.056V17.08H163.104C162.576 17.08 162.12 16.888 161.736 16.504C161.352 16.12 161.16 15.664 161.16 15.136V3.544C161.16 3.016 161.352 2.56 161.736 2.176C162.12 1.792 162.576 1.6 163.104 1.6H212.784ZM238.748 49.552C238.124 51.184 237.044 52 235.508 52H221.9C221.468 52 221.084 51.856 220.748 51.568C220.46 51.232 220.316 50.848 220.316 50.416L220.388 49.984L236.084 3.976C236.276 3.352 236.636 2.8 237.164 2.32C237.692 1.84 238.412 1.6 239.324 1.6H259.34C260.252 1.6 260.972 1.84 261.5 2.32C262.028 2.8 262.388 3.352 262.58 3.976L278.276 49.984L278.348 50.416C278.348 50.848 278.18 51.232 277.844 51.568C277.556 51.856 277.196 52 276.764 52H263.156C261.62 52 260.54 51.184 259.916 49.552L258.116 44.512H240.548L238.748 49.552ZM249.332 15.496L244.22 30.472H254.444L249.332 15.496ZM333.76 37.24C334.288 37.24 334.744 37.432 335.128 37.816C335.512 38.2 335.704 38.656 335.704 39.184V50.056C335.704 50.584 335.512 51.04 335.128 51.424C334.744 51.808 334.288 52 333.76 52H291.712C291.184 52 290.728 51.808 290.344 51.424C289.96 51.04 289.768 50.584 289.768 50.056V3.544C289.768 3.016 289.96 2.56 290.344 2.176C290.728 1.792 291.184 1.6 291.712 1.6H307.264C307.792 1.6 308.248 1.792 308.632 2.176C309.016 2.56 309.208 3.016 309.208 3.544V37.24H333.76ZM397.811 1.6C398.243 1.6 398.603 1.768 398.891 2.104C399.227 2.392 399.395 2.728 399.395 3.112C399.395 3.4 399.323 3.688 399.179 3.976L381.035 34V50.056C381.035 50.584 380.843 51.04 380.459 51.424C380.075 51.808 379.619 52 379.091 52H363.755C363.227 52 362.771 51.808 362.387 51.424C362.003 51.04 361.811 50.584 361.811 50.056V34L343.739 3.976C343.595 3.688 343.523 3.424 343.523 3.184C343.523 2.752 343.667 2.392 343.955 2.104C344.291 1.768 344.675 1.6 345.107 1.6H360.299C361.643 1.6 362.627 2.152 363.251 3.256L371.387 17.512L379.739 3.4C380.459 2.2 381.467 1.6 382.763 1.6H397.811Z" fill="url(#paint0_linear_1_2)"/>
<rect x="20" y="19" width="17" height="33" fill="#71229C"/>
<rect y="34" width="17" height="18" fill="url(#paint1_linear_1_2)"/>
</g>
<defs>
<linearGradient id="paint0_linear_1_2" x1="219" y1="-15" x2="219" y2="74" gradientUnits="userSpaceOnUse">
<stop stop-color="#B96BE3"/>
<stop offset="0.9999" stop-color="#6B406A"/>
<stop offset="1" stop-color="#71229C" stop-opacity="0"/>
</linearGradient>
<linearGradient id="paint1_linear_1_2" x1="8.5" y1="34" x2="8.5" y2="52" gradientUnits="userSpaceOnUse">
<stop stop-color="#B96BE3"/>
<stop offset="0.9999" stop-color="#6B406A"/>
<stop offset="1" stop-color="#71229C" stop-opacity="0"/>
</linearGradient>
<clipPath id="clip0_1_2">
<rect width="59" height="54" fill="white"/>
</clipPath>
</defs>
</svg>
